<?xml version="1.0" encoding="UTF-8"?><svg id="Ebene_1" xmlns="http://www.w3.org/2000/svg" viewBox="0 0 1920 1080"><path d="M630.58,245v646.49c14.32,1.11,23.13,1.11,26.44,2.2,3.3,1.11,4.4,4.41,4.4,9.91s-1.1,8.81-4.4,9.92c-3.31,1.1-12.12,1.1-26.44,1.1h-136.57c-14.32,0-23.13,0-26.43-1.1-3.31-1.11-4.41-4.41-4.41-9.92s1.1-8.81,4.41-9.91c3.3-1.1,26.43-2.2,26.43-2.2l-1.1-312.78c-53.97,53.97-113.45,100.23-113.45,100.23-11.01,12.11-34.14,28.63-34.14,40.75,0,30.84,34.14,17.63,34.14,49.56,0,17.63-11.01,29.74-53.97,31.94v55.06c0,61.67,44.06,35.24,44.06,52.87,0,6.6-11.01,5.5-12.11,5.5h-194.94c-5.5,0-13.22-1.1-13.22-9.91,0-26.43,44.06,3.3,101.33-81.5l20.92-30.84c-19.82-7.71-34.14-14.32-31.93-35.24,5.5-48.46,56.17-13.22,59.47-42.95,2.2-20.93-83.7-74.89-57.27-146.49,36.34-98.02,94.71-143.18,140.97-191.63,45.15-46.26,101.32-93.62,101.32-131.06-14.32,0-39.65-1.1-42.95-2.2-3.31-1.1-4.41-4.41-4.41-9.91s1.1-8.81,4.41-9.91c3.3-1.11,11.01-1.11,25.33-1.11h164.1c14.32,0,23.13,0,26.44,1.11,3.3,1.1,4.4,4.4,4.4,9.91s-1.1,8.81-4.4,9.91c-3.31,1.11-12.12,2.2-26.44,2.2ZM492.92,523.65v-192.74c-61.68,47.36-90.32,125.55-113.45,183.92-9.91,25.33-42.95,133.27-20.92,133.27,28.63,0,124.45-100.23,134.36-124.45Z"/><path d="M1038.02,248.3h-105.73v194.94c0,85.91,82.6,123.36,144.27,149.79,44.06,18.72,102.43,9.91,102.43,24.23v276.44c14.32,0,23.13,0,26.43,1.11,3.31,1.1,4.41,3.3,4.41,8.81s-1.1,8.81-4.41,9.92c-3.3,1.1-12.11,1.1-26.43,1.1h-377.77c-14.32,0-22.02,0-25.33-1.1-3.3-1.11-4.41-4.41-4.41-9.92s1.11-7.71,4.41-8.81c3.31-1.11,11.02-1.11,25.33-1.11V245c-14.32,0-22.02-1.1-25.33-2.2-3.3-1.1-4.41-4.41-4.41-9.91s1.11-8.81,4.41-9.91c3.31-1.11,11.02-1.11,25.33-1.11h360.14c26.44,0-33.04,132.16-44.05,132.16-14.32,0-45.16-105.73-79.3-105.73ZM1047.93,613.96c-51.76-14.32-98.02-46.26-115.64-75.99v351.33h115.64v-275.34Z"/><path d="M1702.09,891.5c14.32,0,23.13,1.11,26.44,2.2,3.3,1.11,4.41,4.41,4.41,9.91s-1.11,8.81-4.41,9.92c-3.31,1.1-12.11,1.1-26.44,1.1h-374.46c-14.32,0-22.02,0-25.33-1.1-3.3-1.11-4.41-4.41-4.41-9.92s1.11-8.81,4.41-9.91c3.31-1.1,11.02-1.1,25.33-2.2v-440.54c0-95.82,41.85-245.61,192.74-245.61,110.14,0,159.7,60.58,159.7,133.27,0,67.18-33.04,98.02-112.34,98.02-34.14,0-62.77-19.83-74.89-45.16-16.52-38.54-6.6-96.92-12.11-101.32-8.81-6.61-33.04,45.15-27.53,146.49,3.3,68.28,62.77,116.74,135.46,124.45,48.46,5.5,109.04,3.3,113.44,9.91,3.31,4.41,0,19.82,0,320.49ZM1571.03,882.69v-296.26c-29.74-11.01-90.32-27.53-112.34-56.17v352.43h112.34ZM1524.77,317.69c-2.2,20.93,6.61,50.66,33.04,50.66,13.22,0,42.95-5.5,46.26-38.54,5.5-50.66-30.84-55.06-47.36-53.97-12.12,1.11-29.74,16.52-31.94,41.85Z"/></svg>